<?xml version="1.0" encoding="UTF-8"?><svg id="Layer_2" xmlns="http://www.w3.org/2000/svg" viewBox="0 0 160 160"><defs><style>.cls-1{fill:#fff;}.cls-2{fill:#ffc800;}</style></defs><g id="Layer_2-2"><circle class="cls-2" cx="80" cy="80" r="80"/><path class="cls-1" d="m54,85h54.35c3.67,0,6.92-2.39,8.02-5.9l7.95-25.51c1.33-4.26-1.86-8.59-6.32-8.59H47l7,40Z"/><path class="cls-1" d="m115,96h0c0,2.21-1.79,4-4,4h-47.41c-3.79,0-7.05-2.68-7.79-6.4l-.32-1.6-8.29-41.85c-.25-1.25-1.34-2.15-2.62-2.15h-5.98c-1.98,0-3.58-1.6-3.58-3.58v-.83c0-1.98,1.6-3.58,3.58-3.58h8.39c3.7,0,6.88,2.61,7.6,6.24l.35,1.76,8.14,41.08c.34,1.7,1.82,2.92,3.55,2.92h44.39c2.21,0,4,1.79,4,4Z"/><rect class="cls-1" x="55" y="105" width="15" height="15" rx="7.5" ry="7.5"/><rect class="cls-1" x="100" y="105" width="15" height="15" rx="7.5" ry="7.5"/></g></svg>